<svg width="16.000000" height="15.000000" viewBox="0 0 16 15" fill="none" xmlns="http://www.w3.org/2000/svg" xmlns:xlink="http://www.w3.org/1999/xlink">
	<desc>
			Created with Pixso.
	</desc>
	<defs/>
	<path id="Vector" d="M13.71 5.81C14.55 6.66 15.03 7.8 15.03 9L15.03 14.25L12.03 14.25L12.03 9C12.03 8.6 11.87 8.22 11.59 7.93C11.31 7.65 10.92 7.5 10.53 7.5C10.13 7.5 9.75 7.65 9.47 7.93C9.18 8.22 9.03 8.6 9.03 9L9.03 14.25L6.03 14.25L6.03 9C6.03 7.8 6.5 6.66 7.34 5.81C8.19 4.97 9.33 4.5 10.53 4.5C11.72 4.5 12.86 4.97 13.71 5.81Z" stroke="#FFFFFF" stroke-opacity="1.000000" stroke-width="1.000000" stroke-linejoin="round"/>
	<path id="Vector" d="M3.03 5.25L3.03 14.25L0.03 14.25L0.03 5.25L3.03 5.25Z" stroke="#FFFFFF" stroke-opacity="1.000000" stroke-width="1.000000" stroke-linejoin="round"/>
	<path id="Vector" d="M1.53 3C0.7 3 0.03 2.32 0.03 1.5C0.03 0.67 0.7 0 1.53 0C2.35 0 3.03 0.67 3.03 1.5C3.03 2.32 2.35 3 1.53 3Z" stroke="#FFFFFF" stroke-opacity="1.000000" stroke-width="1.000000" stroke-linejoin="round"/>
</svg>
