<svg width="19.000000" height="16.000000" viewBox="0 0 19 16" fill="none" xmlns="http://www.w3.org/2000/svg" xmlns:xlink="http://www.w3.org/1999/xlink">
	<desc>
			Created with Pixso.
	</desc>
	<defs/>
	<path id="Vector" d="M15.4 1.28C14.9 0.7 14.23 0.29 13.49 0.11C12.74 -0.08 11.96 -0.03 11.24 0.24C10.52 0.51 9.91 1 9.48 1.64C9.05 2.27 8.82 3.02 8.83 3.79L8.83 4.63C7.36 4.66 5.91 4.34 4.59 3.68C3.28 3.02 2.15 2.04 1.31 0.84C1.31 0.84 -2.04 8.36 5.49 11.71C3.77 12.88 1.71 13.46 -0.36 13.38C7.16 17.56 16.35 13.38 16.35 3.77C16.35 3.53 16.33 3.3 16.29 3.07C17.14 2.23 17.74 1.17 18.03 0C17.23 0.57 16.34 1 15.4 1.28Z" stroke="#FFFFFF" stroke-opacity="1.000000" stroke-width="1.000000" stroke-linejoin="round"/>
</svg>
