<svg width="19.000000" height="14.000000" viewBox="0 0 19 14" fill="none" xmlns="http://www.w3.org/2000/svg" xmlns:xlink="http://www.w3.org/1999/xlink">
	<desc>
			Created with Pixso.
	</desc>
	<defs/>
	<path id="Vector" d="M17.08 0.94C16.8 0.66 16.45 0.45 16.06 0.34C14.66 0 9.03 0 9.03 0C9.03 0 3.4 0 1.99 0.37C1.61 0.48 1.26 0.69 0.98 0.98C0.7 1.26 0.5 1.62 0.4 2.01C0.15 3.44 0.02 4.88 0.03 6.34C0.02 7.8 0.14 9.26 0.4 10.7C0.51 11.07 0.71 11.41 0.99 11.69C1.27 11.97 1.61 12.16 1.99 12.27C3.4 12.64 9.03 12.64 9.03 12.64C9.03 12.64 14.66 12.64 16.06 12.27C16.45 12.16 16.8 11.95 17.08 11.66C17.35 11.37 17.55 11.02 17.65 10.63C17.91 9.21 18.03 7.78 18.03 6.34C18.04 4.87 17.91 3.41 17.65 1.97C17.55 1.59 17.35 1.23 17.08 0.94Z" stroke="#FFFFFF" stroke-opacity="1.000000" stroke-width="1.000000" stroke-linejoin="round"/>
	<path id="Vector" d="M11.89 6.34L7.19 3.66L7.19 9.01L11.89 6.34Z" stroke="#FFFFFF" stroke-opacity="1.000000" stroke-width="1.000000" stroke-linejoin="round"/>
</svg>
